<svg width="15" height="20" viewBox="0 0 15 20" fill="none" xmlns="http://www.w3.org/2000/svg">
<path d="M13.5924 5.52241H11.103V4.50174C11.103 4.04188 11.0124 3.58653 10.8364 3.16168C10.6604 2.73683 10.4024 2.3508 10.0772 2.02564C9.75201 1.70047 9.36593 1.44253 8.94103 1.26655C8.51613 1.09058 8.06072 1 7.60081 1C7.1409 1 6.68549 1.09058 6.26058 1.26655C5.83568 1.44253 5.4496 1.70047 5.1244 2.02564C4.79919 2.3508 4.54122 2.73683 4.36522 3.16168C4.18922 3.58653 4.09864 4.04188 4.09864 4.50174V5.52241H1.40342C1.2965 5.52271 1.19406 5.56532 1.11846 5.64091C1.04286 5.7165 1.00025 5.81893 0.999939 5.92583V16.7296C1.00013 17.2645 1.21274 17.7775 1.59103 18.1557C1.96932 18.5339 2.48234 18.7465 3.01732 18.7467H11.9826C12.5175 18.7465 13.0306 18.5339 13.4088 18.1557C13.7871 17.7775 13.9997 17.2645 13.9999 16.7296V5.92583C13.9987 5.81852 13.9553 5.716 13.879 5.64049C13.8027 5.56498 13.6998 5.52256 13.5924 5.52241ZM4.90155 4.4977C4.90155 3.78298 5.18551 3.09752 5.69096 2.59213C6.19642 2.08674 6.88196 1.80282 7.59677 1.80282C8.31159 1.80282 8.99713 2.08674 9.50258 2.59213C10.008 3.09752 10.292 3.78298 10.292 4.4977V5.51837H4.90155V4.4977ZM13.189 16.7296C13.188 17.0503 13.0602 17.3576 12.8334 17.5843C12.6066 17.8111 12.2993 17.9389 11.9785 17.9399H3.01328C2.69255 17.9389 2.38521 17.8111 2.15842 17.5843C1.93162 17.3576 1.80379 17.0503 1.80286 16.7296V6.32926H4.0946V7.9712C4.0946 8.0782 4.13711 8.18081 4.21278 8.25647C4.28844 8.33212 4.39107 8.37463 4.49808 8.37463C4.60509 8.37463 4.70771 8.33212 4.78338 8.25647C4.85904 8.18081 4.90155 8.0782 4.90155 7.9712V6.32926H10.296V7.9712C10.296 8.0782 10.3385 8.18081 10.4142 8.25647C10.4899 8.33212 10.5925 8.37463 10.6995 8.37463C10.8065 8.37463 10.9091 8.33212 10.9848 8.25647C11.0605 8.18081 11.103 8.0782 11.103 7.9712V6.32926H13.189V16.7296Z" fill="white"/>
<path fill-rule="evenodd" clip-rule="evenodd" d="M13.5929 5.22236C13.7791 5.22262 13.9577 5.29623 14.0901 5.42725C14.2224 5.55827 14.2978 5.73615 14.2999 5.92237L14.3 5.92578L14.3 16.7295C14.2997 17.344 14.0555 17.9333 13.621 18.3678C13.1865 18.8023 12.5972 19.0464 11.9827 19.0467H3.01733C2.40283 19.0464 1.81345 18.8023 1.37892 18.3678C0.944393 17.9333 0.700172 17.3441 0.699951 16.7296L0.699951 5.92578C0.70049 5.73961 0.774697 5.56035 0.906349 5.42871C1.038 5.29708 1.21639 5.2229 1.40256 5.22236L3.79865 5.22236V4.50169C3.79865 4.00243 3.897 3.50807 4.08808 3.04681C4.27916 2.58556 4.55923 2.16646 4.91229 1.81344C5.26536 1.46042 5.68451 1.18039 6.1458 0.989336C6.6071 0.798284 7.10152 0.699951 7.60082 0.699951C8.10012 0.699951 8.59454 0.798284 9.05584 0.989336C9.51713 1.18039 9.93628 1.46042 10.2893 1.81344C10.6424 2.16646 10.9225 2.58556 11.1136 3.04681C11.3046 3.50807 11.403 4.00243 11.403 4.50169V5.22236H13.5929ZM1.40342 5.52241H4.09864V4.50174C4.09864 4.04188 4.18922 3.58653 4.36522 3.16168C4.54122 2.73683 4.79919 2.3508 5.1244 2.02564C5.4496 1.70047 5.83568 1.44253 6.26058 1.26655C6.68549 1.09058 7.1409 1 7.60081 1C8.06072 1 8.51613 1.09058 8.94103 1.26655C9.36593 1.44253 9.75201 1.70047 10.0772 2.02564C10.4024 2.3508 10.6604 2.73683 10.8364 3.16168C11.0124 3.58653 11.103 4.04188 11.103 4.50174V5.52241H13.5924C13.6998 5.52256 13.8027 5.56498 13.879 5.64049C13.9553 5.716 13.9987 5.81852 13.9999 5.92583V16.7296C13.9997 17.2645 13.7871 17.7775 13.4088 18.1557C13.0306 18.5339 12.5175 18.7465 11.9826 18.7467H3.01732C2.48234 18.7465 1.96932 18.5339 1.59103 18.1557C1.21274 17.7775 1.00013 17.2645 0.999939 16.7296V5.92583C1.00025 5.81893 1.04286 5.7165 1.11846 5.64091C1.19406 5.56532 1.2965 5.52271 1.40342 5.52241ZM5.9031 2.80423C5.45391 3.25336 5.20157 3.8625 5.20157 4.49766V5.21832H9.99201V4.49766C9.99201 3.8625 9.73966 3.25336 9.29048 2.80423C8.84129 2.3551 8.23205 2.10277 7.59679 2.10277C6.96152 2.10277 6.35228 2.3551 5.9031 2.80423ZM12.6213 17.3721C12.7919 17.2016 12.8881 16.9705 12.889 16.7292V6.62921H11.403V7.97115C11.403 8.15772 11.3289 8.33665 11.1969 8.46856C11.065 8.60048 10.8861 8.67458 10.6995 8.67458C10.513 8.67458 10.334 8.60048 10.2021 8.46856C10.0702 8.33665 9.99604 8.15772 9.99604 7.97115V6.62921H5.20157V7.97115C5.20157 8.15772 5.12744 8.33665 4.99551 8.46856C4.86358 8.60048 4.68465 8.67458 4.49809 8.67458C4.31153 8.67458 4.1326 8.60048 4.00067 8.46856C3.86874 8.33665 3.79461 8.15773 3.79461 7.97115V6.62921H2.10287V16.7291C2.10368 16.9703 2.1999 17.2015 2.37055 17.3721C2.54116 17.5427 2.77231 17.639 3.01358 17.6398L11.9777 17.6398C12.2189 17.639 12.4507 17.5427 12.6213 17.3721ZM11.9785 17.9399H3.01328C2.69255 17.9389 2.38521 17.8111 2.15842 17.5843C1.93162 17.3576 1.80379 17.0503 1.80286 16.7296V6.32926H4.0946V7.9712C4.0946 8.0782 4.13711 8.18081 4.21278 8.25647C4.28844 8.33212 4.39107 8.37463 4.49808 8.37463C4.60509 8.37463 4.70771 8.33212 4.78338 8.25647C4.85904 8.18081 4.90155 8.0782 4.90155 7.9712V6.32926H10.296V7.9712C10.296 8.0782 10.3385 8.18081 10.4142 8.25647C10.4899 8.33212 10.5925 8.37463 10.6995 8.37463C10.8065 8.37463 10.9091 8.33212 10.9848 8.25647C11.0605 8.18081 11.103 8.0782 11.103 7.9712V6.32926H13.189V16.7296C13.188 17.0503 13.0602 17.3576 12.8334 17.5843C12.6066 17.8111 12.2993 17.9389 11.9785 17.9399ZM5.69096 2.59213C5.18551 3.09752 4.90155 3.78298 4.90155 4.4977V5.51837H10.292V4.4977C10.292 3.78298 10.008 3.09752 9.50258 2.59213C8.99713 2.08674 8.31159 1.80282 7.59677 1.80282C6.88196 1.80282 6.19642 2.08674 5.69096 2.59213Z" fill="white"/>
</svg>
