<svg xmlns="http://www.w3.org/2000/svg" width="30" height="29" viewBox="0 0 30 29">
    <g fill="none" fill-rule="evenodd" transform="translate(.5)">
        <rect width="27.943" height="27.984" x=".5" y=".5" stroke="#FFF" rx="4"/>
        <path fill="#FFF" fill-rule="nonzero" d="M16.05 14.65c-.1-.1-.1-.25 0-.35l3.75-3.75c.1-.1.15-.25.15-.35 0-.1-.05-.25-.15-.35l-.7-.7a.54.54 0 0 0-.35-.15c-.15 0-.25.05-.35.15l-3.75 3.75c-.1.1-.25.1-.35 0l-3.75-3.75A.54.54 0 0 0 10.2 9c-.1 0-.25.05-.35.15l-.7.7c-.1.1-.15.25-.15.35 0 .1.05.25.15.35l3.75 3.75c.1.1.1.25 0 .35L9.15 18.4c-.1.1-.15.25-.15.35 0 .1.05.25.15.35l.7.7c.1.1.25.15.35.15.1 0 .25-.05.35-.15l3.75-3.75c.1-.1.25-.1.35 0l3.75 3.75c.1.1.25.15.35.15.1 0 .25-.05.35-.15l.7-.7c.1-.1.15-.25.15-.35 0-.1-.05-.25-.15-.35l-3.75-3.75z"/>
    </g>
</svg>
