<svg id="Camada_1" data-name="Camada 1" xmlns="http://www.w3.org/2000/svg" viewBox="0 0 426.6 149.3"><defs><style>.cls-1{fill:#13abb2;}</style></defs><title>Load Miranty</title><path class="cls-1" d="M195.5,268.5c3.3-17,6.7-33.9,9.9-50.9,1.3-7,2.8-14,3.2-21.1s-4.7-11.1-11.8-7.5A55.9,55.9,0,0,0,182,199c-22.1,21.8-43.8,43.9-65.5,65.9-13.6,13.7-26.8,27.7-40.7,41-6.7,6.4-15.4,8.1-24.6,5.6s-11.3-7.8-10.1-16.1c2.6-17.7,10.8-33.2,19.1-48.6,11.1-20.5,23.9-40,39.3-57.6,4.5-5.3,11.8-5.3,17.5-.3s5,9-.2,15.2a278.9,278.9,0,0,0-43.7,71,33.5,33.5,0,0,0-2.4,10.5c-.4,3.8,1.9,5.3,5.1,3.2a63.4,63.4,0,0,0,11.7-8.9c16.7-17.7,33-36,49.9-53.6s33.6-36.7,54.5-50.4A89.3,89.3,0,0,1,217,164.4c14.2-3.9,22.8,3,22.3,17.6-.4,9.9-2.7,19.8-4.5,29.6-3.1,16.9-6.6,33.6-9.7,50.5-1,5.6-1.1,12.2,3.9,15.6s11.6,1.1,16.3-2.4c12.4-9.4,24.2-19.4,36.5-28.8,10-7.6,20.1-15.2,30.8-21.5,5.1-2.9,11.8-3.8,17.9-4,9.9-.3,17.2,5.9,18.7,15.7s2.1,21,3.1,31.5c.4,4,.8,8,1.5,12,2.2,12.7,11.6,20.5,25.2,20.3,17.4-.2,33.8-5.4,49.8-11.7,10.6-4.1,20.8-8.8,31.4-12.9,2.1-.8,4.8.1,7.3.2-1.5,2.2-2.4,5.5-4.5,6.4-24.9,11.3-49.8,22.9-77,27.6a123.9,123.9,0,0,1-30.4,1.4c-15.6-1.4-24.8-10.4-28-25.7-1.7-8.4-2.2-17-3.3-25.5-.5-4-.5-8-1.3-11.9-2-9.4-7.8-12.7-16-7.6-10.8,6.7-20.6,14.9-30.9,22.4-13.8,10-27.6,20.1-41.6,29.8-2.8,2-6.6,2.9-10.1,3.6-15.4,3.1-25.8-4.6-27.4-20.2-.2-2.5,0-5.1,0-7.6Z" transform="translate(-40.9 -163.3)"/><path class="cls-1" d="M195.5,268.5s.1,20.7,13,26.8-4.4-35.1-8.3-32.9" transform="translate(-40.9 -163.3)"/></svg>