<svg width="645" height="255" viewBox="0 0 645 255" fill="none" xmlns="http://www.w3.org/2000/svg">
<path fill-rule="evenodd" clip-rule="evenodd" d="M461.474 251.775H465.475V254.221H461.474V251.775ZM489.124 230.038C490.792 230.038 492.354 230.348 493.811 230.974C495.26 231.6 496.543 232.468 497.66 233.586L494.8 236.439C493.222 234.861 491.328 234.069 489.124 234.069C486.89 234.069 484.988 234.861 483.41 236.439C481.833 238.024 481.04 239.918 481.04 242.129C481.04 244.341 481.833 246.25 483.41 247.851C484.988 249.413 486.89 250.19 489.124 250.19C491.305 250.19 493.199 249.413 494.8 247.858L497.66 250.674C496.543 251.791 495.26 252.658 493.811 253.285C492.354 253.911 490.792 254.221 489.124 254.221C485.78 254.221 482.92 253.036 480.557 250.666C478.195 248.319 477.01 245.473 477.01 242.129C477.01 238.809 478.195 235.963 480.557 233.593C482.897 231.223 485.758 230.038 489.124 230.038ZM518.033 230.038C521.37 230.038 524.215 231.223 526.555 233.593C528.947 235.963 530.14 238.809 530.14 242.129C530.14 245.496 528.947 248.341 526.555 250.666C524.215 253.036 521.37 254.221 518.033 254.221C514.69 254.221 511.852 253.036 509.505 250.666C507.142 248.319 505.957 245.473 505.957 242.129C505.957 238.809 507.142 235.963 509.505 233.593C511.829 231.223 514.667 230.038 518.033 230.038ZM518.025 234.069C515.821 234.069 513.919 234.861 512.32 236.439C510.765 238.024 509.987 239.918 509.987 242.129C509.987 244.341 510.765 246.25 512.32 247.851C513.919 249.413 515.821 250.19 518.025 250.19C520.229 250.19 522.124 249.413 523.701 247.851C525.279 246.25 526.064 244.341 526.064 242.129C526.064 239.918 525.279 238.024 523.701 236.439C522.124 234.861 520.229 234.069 518.025 234.069ZM545.682 239.76V254.221H541.697V230.038L553.773 242.129L565.88 230.038V254.221H561.804V239.76L553.758 247.843L545.682 239.76ZM577.437 251.775H581.438V254.221H577.437V251.775ZM606.053 234.069H596.958V240.137H606.053C606.445 240.137 606.83 240.054 607.2 239.895C607.578 239.729 607.902 239.511 608.181 239.231C608.461 238.952 608.672 238.628 608.823 238.25C608.974 237.88 609.049 237.488 609.049 237.065C609.049 236.672 608.974 236.288 608.823 235.918C608.672 235.548 608.461 235.223 608.181 234.944C607.902 234.665 607.578 234.446 607.2 234.295C606.83 234.144 606.445 234.069 606.053 234.069V234.069ZM610.951 242.129C612.37 243.503 613.08 245.186 613.08 247.179C613.08 249.089 612.393 250.749 611.027 252.168C609.661 253.534 608 254.221 606.053 254.221H592.973V230.038H606.053C608 230.038 609.661 230.732 611.027 232.129C612.393 233.503 613.08 235.148 613.08 237.08C613.08 239.05 612.37 240.733 610.951 242.129ZM606.053 250.19C606.445 250.19 606.83 250.115 607.2 249.964C607.578 249.813 607.902 249.594 608.181 249.315C608.461 249.036 608.672 248.704 608.823 248.334C608.974 247.956 609.049 247.571 609.049 247.171C609.049 246.356 608.747 245.639 608.144 245.036C607.562 244.424 606.868 244.122 606.053 244.122H596.958V250.19H606.053ZM636.706 234.069H628.623V242.092L636.706 242.129C637.801 242.129 638.737 241.737 639.53 240.945C640.322 240.152 640.714 239.201 640.714 238.084C640.714 236.99 640.322 236.046 639.53 235.254C638.737 234.461 637.801 234.069 636.706 234.069H636.706ZM640.11 254.221L635.446 246.16H628.623V254.221H624.638V230.038H636.706C638.91 230.038 640.805 230.831 642.382 232.408C643.96 233.986 644.745 235.88 644.745 238.084C644.745 239.76 644.269 241.284 643.318 242.65C642.39 244.001 641.205 244.96 639.763 245.541L644.745 254.221H640.11Z" fill="#00AAB2"/>
<path fill-rule="evenodd" clip-rule="evenodd" d="M173.181 107.44C175.909 108.084 179.025 107.977 182.266 107.338C185.523 106.632 188.553 105.1 191.326 102.875C196.198 98.8987 205.133 89.9118 217.863 75.8514C225.969 66.8091 234.258 57.8803 242.993 48.846C251.728 39.812 259.702 32.2137 266.901 26.1178C274.068 20.1546 279.205 17.4347 282.531 18.2202C284.859 18.7701 285.89 21.5415 285.476 26.5708C284.928 31.5683 283.745 37.4697 281.896 44.4075C280.184 51.6582 278.839 59.1366 277.726 66.5291C276.628 73.8549 276.482 80.4222 277.863 85.8755C279.197 91.5281 282.725 95.0297 288.778 96.4592L291.553 96.904C297.627 97.3547 304.341 94.7964 311.918 89.7732C319.48 84.8162 326.847 78.9006 334.292 72.6522C340.273 67.2519 345.885 62.818 350.995 59.3192C356.172 55.8359 360.263 54.2735 363.19 54.9646C364.321 55.2316 365.425 55.9136 366.12 57.1314C367.719 60.1778 368.642 64.8909 368.543 71.2587C368.872 76.1119 369.397 80.7306 370.34 85.659C371.002 90.591 372.849 94.9603 375.653 98.8531C378.374 102.796 382.919 105.555 388.973 106.985C396.158 108.681 406.228 107.969 419.006 105.017C431.849 102.08 448.841 95.5567 469.87 85.9138C471.221 85.2496 472.102 84.1937 472.521 83.3093L472.71 82.5111C473.087 80.9146 472.462 79.9945 470.931 79.6331C469.934 79.3975 468.842 79.5608 467.538 80.0257C450.432 87.9261 436.839 93.1441 426.61 95.7152C416.283 98.4038 408.349 98.9883 403.027 97.7317C398.57 96.6792 395.527 94.6964 393.596 91.5717C391.618 88.6464 390.579 85.3109 390.046 81.3225C389.595 77.2832 389.125 73.0283 389.152 68.7503C389.081 64.5899 388.747 60.6483 388.249 56.8082C387.685 52.9528 386.646 49.6173 385.02 46.9859C383.195 44.3074 380.351 42.3719 376.426 41.445L373.652 41.0005C367.562 40.6162 360.844 42.8924 353.713 47.8105C346.534 52.9282 339.278 58.378 332.216 64.7877C326.051 70.0741 320.259 74.6761 315.019 78.4255C309.815 82.3234 305.34 83.7252 301.815 82.8926L301.083 82.7197C298.391 81.0308 297.354 76.5016 298.334 69.0777C299.033 61.6577 300.519 53.5807 302.498 45.1986L305.918 31.6082C307.206 26.1535 308.027 21.7822 308.319 18.761C308.773 14.1627 308.369 9.92352 307.331 6.58792C306.226 3.23682 303.613 1.21544 299.954 0.351442C297.559 -0.214058 294.643 -0.0598806 291.269 0.548219C281.22 2.95112 270.088 9.94422 258.134 21.3083C245.964 32.6919 233.222 45.9067 219.989 60.9023C216.608 64.8096 213.259 68.5836 209.725 72.2443C203.317 79.1591 198.409 84.1804 195.096 86.9096C191.536 89.7913 189.198 91.0655 187.868 90.7514C186.717 90.2689 186.433 88.7972 187.077 86.0697C187.768 83.1426 189.294 79.359 191.485 74.5389C195.053 67.1643 199.407 59.1323 204.901 50.7378C210.196 42.296 215.407 35.0985 220.621 29.3765C221.455 28.5199 222.09 27.6162 222.462 26.9319L223.039 25.3825C223.541 23.2537 222.999 21.0889 221.4 19.2364C219.785 17.4503 217.731 16.3332 215.402 15.7835C214.072 15.4692 212.827 15.3861 211.356 15.6707C209.833 15.8731 208.599 16.6353 207.538 17.8593C202.116 24.1642 196.118 32.0184 190.024 41.4657C183.617 51.0496 178.04 60.6889 173.477 70.4976C169.909 77.8722 167.293 84.4885 165.927 90.276C165.314 92.8706 165.011 95.0465 164.955 97.0698C164.71 99.8914 165.385 102.088 167.051 103.956C168.666 105.742 170.654 106.843 173.181 107.44V107.44Z" fill="#00AAB2"/>
<path fill-rule="evenodd" clip-rule="evenodd" d="M10.7263 162.316V201.24H0V136.15L32.5046 168.695L65.0905 136.15V201.24H54.1201V162.316L32.4637 184.074L10.7263 162.316ZM111.24 136.15H121.966V201.24H111.24V136.15ZM200.581 146.998H178.823V168.593L200.581 168.695C203.526 168.695 206.046 167.639 208.179 165.506C210.312 163.373 211.368 160.813 211.368 157.806C211.368 154.86 210.312 152.321 208.179 150.188C206.046 148.055 203.526 146.998 200.581 146.998ZM209.743 201.24L197.188 179.543H178.823V201.24H168.096V136.15H200.581C206.513 136.15 211.612 138.283 215.858 142.529C220.104 146.775 222.217 151.874 222.217 157.806C222.217 162.316 220.937 166.42 218.377 170.097C215.878 173.733 212.688 176.313 208.808 177.878L222.217 201.24H209.743ZM291.323 179.665H310.46L300.891 160.528L291.323 179.665ZM315.904 190.392H285.98L280.454 201.24H268.366L300.891 136.15L333.437 201.24H321.329L315.904 190.392ZM379.505 136.028L422.777 175.054V136.028H433.625V201.118V201.017V201.24L390.232 162.214V201.118H379.505V136.028ZM479.714 136.15H533.976V146.998H512.32V201.24H501.472V146.998H479.714V136.15ZM630.976 136.15H644.75L618.035 170.28V201.24H607.308V170.848L580.126 136.15H594.002L612.448 159.878L630.976 136.15Z" fill="white"/>
</svg>
