<svg width="16" height="14" viewBox="0 0 16 14" fill="none" xmlns="http://www.w3.org/2000/svg">
<path d="M16 0.666667C16 0.266667 15.7333 0 15.3333 0H0.666667C0.266667 0 0 0.266667 0 0.666667V2C0 2.4 0.266667 2.66667 0.666667 2.66667H15.3333C15.7333 2.66667 16 2.4 16 2V0.666667Z" fill="white"/>
<path d="M16 5.99992C16 5.59992 15.7333 5.33325 15.3333 5.33325H0.666667C0.266667 5.33325 0 5.59992 0 5.99992V7.33325C0 7.73325 0.266667 7.99992 0.666667 7.99992H15.3333C15.7333 7.99992 16 7.73325 16 7.33325V5.99992Z" fill="white"/>
<path d="M16 11.3334C16 10.9334 15.7333 10.6667 15.3333 10.6667H0.666667C0.266667 10.6667 0 10.9334 0 11.3334V12.6667C0 13.0667 0.266667 13.3334 0.666667 13.3334H15.3333C15.7333 13.3334 16 13.0667 16 12.6667V11.3334Z" fill="white"/>
</svg>
