<svg width="34" height="34" viewBox="0 0 34 34" fill="none" xmlns="http://www.w3.org/2000/svg">
<path d="M12.3877 23.0393C12.3877 23.9064 13.3346 24.4412 14.0772 23.9936L23.9132 18.065C24.632 17.6318 24.632 16.5895 23.9132 16.1563L14.0772 10.2277C13.3346 9.78006 12.3877 10.3149 12.3877 11.182V23.0393Z" fill="#00AAB2"/>
<path fill-rule="evenodd" clip-rule="evenodd" d="M16.7143 33.6856C7.48324 33.6856 0 26.2024 0 16.9714C0 7.74032 7.48324 0.25708 16.7143 0.25708C25.9453 0.25708 33.4286 7.74032 33.4286 16.9714C33.4286 26.2024 25.9453 33.6856 16.7143 33.6856ZM16.7143 31.4571C24.7145 31.4571 31.2 24.9716 31.2 16.9714C31.2 8.97113 24.7145 2.48565 16.7143 2.48565C8.71405 2.48565 2.22857 8.97113 2.22857 16.9714C2.22857 24.9716 8.71405 31.4571 16.7143 31.4571Z" fill="#00AAB2"/>
</svg>
