<svg width="316" height="258" viewBox="0 0 316 258" fill="none" xmlns="http://www.w3.org/2000/svg">
<rect width="316" height="258" fill="#EEEEEE"/>
<g clip-path="url(#clip0)">
<path fill-rule="evenodd" clip-rule="evenodd" d="M211.435 176.761H212.973V177.701H211.435V176.761ZM222.066 168.407C222.708 168.407 223.308 168.526 223.868 168.766C224.426 169.007 224.919 169.341 225.348 169.77L224.249 170.867C223.642 170.26 222.914 169.956 222.066 169.956C221.207 169.956 220.476 170.26 219.869 170.867C219.263 171.476 218.958 172.204 218.958 173.053C218.958 173.904 219.263 174.637 219.869 175.253C220.476 175.853 221.207 176.151 222.066 176.151C222.905 176.151 223.633 175.853 224.249 175.255L225.348 176.337C224.919 176.767 224.426 177.1 223.868 177.341C223.308 177.581 222.708 177.701 222.066 177.701C220.781 177.701 219.681 177.245 218.772 176.334C217.864 175.432 217.409 174.339 217.409 173.053C217.409 171.778 217.864 170.684 218.772 169.773C219.672 168.862 220.772 168.407 222.066 168.407ZM233.182 168.407C234.465 168.407 235.559 168.862 236.458 169.773C237.378 170.684 237.837 171.778 237.837 173.053C237.837 174.347 237.378 175.441 236.458 176.334C235.559 177.245 234.465 177.701 233.182 177.701C231.896 177.701 230.805 177.245 229.903 176.334C228.994 175.432 228.539 174.339 228.539 173.053C228.539 171.778 228.994 170.684 229.903 169.773C230.796 168.862 231.887 168.407 233.182 168.407ZM233.179 169.956C232.331 169.956 231.6 170.26 230.985 170.867C230.387 171.476 230.088 172.204 230.088 173.053C230.088 173.904 230.387 174.637 230.985 175.253C231.6 175.853 232.331 176.151 233.179 176.151C234.026 176.151 234.755 175.853 235.361 175.253C235.968 174.637 236.27 173.904 236.27 173.053C236.27 172.204 235.968 171.476 235.361 170.867C234.755 170.26 234.026 169.956 233.179 169.956ZM243.813 172.143V177.701H242.28V168.407L246.924 173.053L251.579 168.407V177.701H250.011V172.143L246.918 175.249L243.813 172.143ZM256.022 176.761H257.561V177.701H256.022V176.761ZM267.025 169.956H263.528V172.288H267.025C267.176 172.288 267.324 172.256 267.466 172.195C267.611 172.131 267.736 172.047 267.843 171.94C267.951 171.833 268.032 171.708 268.09 171.563C268.148 171.421 268.177 171.27 268.177 171.107C268.177 170.956 268.148 170.809 268.09 170.667C268.032 170.524 267.951 170.399 267.843 170.292C267.736 170.185 267.611 170.101 267.466 170.043C267.324 169.985 267.176 169.956 267.025 169.956ZM268.908 173.053C269.454 173.582 269.727 174.228 269.727 174.994C269.727 175.728 269.463 176.366 268.938 176.912C268.412 177.437 267.774 177.701 267.025 177.701H261.996V168.407H267.025C267.774 168.407 268.412 168.673 268.938 169.21C269.463 169.738 269.727 170.371 269.727 171.113C269.727 171.87 269.454 172.517 268.908 173.053ZM267.025 176.151C267.176 176.151 267.324 176.123 267.466 176.065C267.611 176.007 267.736 175.922 267.843 175.815C267.951 175.708 268.032 175.58 268.09 175.438C268.148 175.293 268.177 175.145 268.177 174.991C268.177 174.678 268.061 174.402 267.829 174.171C267.605 173.935 267.338 173.819 267.025 173.819H263.528V176.151H267.025ZM278.811 169.956H275.703V173.039L278.811 173.053C279.232 173.053 279.592 172.903 279.897 172.598C280.201 172.294 280.352 171.928 280.352 171.499C280.352 171.079 280.201 170.716 279.897 170.411C279.592 170.107 279.232 169.956 278.811 169.956ZM280.12 177.701L278.327 174.603H275.703V177.701H274.171V168.407H278.811C279.658 168.407 280.387 168.712 280.993 169.318C281.6 169.924 281.902 170.652 281.902 171.499C281.902 172.143 281.719 172.729 281.353 173.254C280.996 173.773 280.541 174.141 279.986 174.365L281.902 177.701H280.12Z" fill="#111111" fill-opacity="0.3"/>
<path fill-rule="evenodd" clip-rule="evenodd" d="M100.587 121.291C101.636 121.538 102.834 121.497 104.081 121.251C105.333 120.98 106.498 120.391 107.564 119.536C109.437 118.008 112.873 114.554 117.767 109.151C120.884 105.676 124.071 102.244 127.43 98.7722C130.788 95.3003 133.854 92.3802 136.622 90.0374C139.378 87.7457 141.353 86.7004 142.632 87.0023C143.527 87.2136 143.924 88.2787 143.764 90.2115C143.554 92.1321 143.099 94.4001 142.388 97.0664C141.73 99.853 141.213 102.727 140.785 105.568C140.362 108.383 140.306 110.907 140.837 113.003C141.35 115.175 142.707 116.521 145.034 117.071L146.101 117.242C148.436 117.415 151.018 116.432 153.931 114.501C156.839 112.596 159.671 110.323 162.534 107.921C164.834 105.846 166.991 104.142 168.956 102.797C170.947 101.458 172.52 100.858 173.645 101.124C174.08 101.226 174.504 101.488 174.772 101.956C175.387 103.127 175.741 104.938 175.703 107.386C175.83 109.251 176.032 111.026 176.394 112.92C176.649 114.815 177.359 116.495 178.437 117.991C179.483 119.506 181.231 120.566 183.559 121.116C186.321 121.768 190.193 121.494 195.106 120.359C200.044 119.231 206.578 116.724 214.663 113.018C215.183 112.763 215.521 112.357 215.682 112.017L215.755 111.71C215.9 111.097 215.66 110.743 215.071 110.604C214.688 110.514 214.268 110.576 213.767 110.755C207.189 113.791 201.963 115.797 198.03 116.785C194.059 117.818 191.009 118.043 188.962 117.56C187.249 117.155 186.079 116.393 185.336 115.192C184.576 114.068 184.176 112.786 183.971 111.253C183.798 109.701 183.617 108.066 183.627 106.422C183.6 104.823 183.472 103.308 183.28 101.832C183.063 100.35 182.664 99.0686 182.039 98.0573C181.337 97.0279 180.243 96.2841 178.734 95.9279L177.668 95.7571C175.326 95.6094 172.743 96.4841 170.001 98.3742C167.241 100.341 164.451 102.435 161.736 104.899C159.365 106.93 157.138 108.699 155.124 110.14C153.123 111.638 151.402 112.177 150.047 111.857L149.765 111.79C148.73 111.141 148.331 109.401 148.708 106.548C148.977 103.696 149.548 100.592 150.309 97.3704L151.624 92.1475C152.12 90.0511 152.435 88.3712 152.547 87.2101C152.722 85.4429 152.567 83.8137 152.168 82.5318C151.743 81.244 150.738 80.4671 149.331 80.1351C148.41 79.9177 147.289 79.977 145.992 80.2107C142.128 81.1342 137.848 83.8217 133.252 88.1891C128.572 92.5639 123.673 97.6426 118.585 103.406C117.285 104.907 115.997 106.358 114.638 107.764C112.175 110.422 110.287 112.352 109.014 113.401C107.645 114.508 106.746 114.998 106.235 114.877C105.792 114.692 105.683 114.126 105.93 113.078C106.196 111.953 106.783 110.499 107.625 108.646C108.997 105.812 110.671 102.725 112.784 99.4992C114.82 96.2549 116.823 93.4888 118.828 91.2898C119.149 90.9606 119.393 90.6133 119.536 90.3503L119.758 89.7548C119.951 88.9367 119.742 88.1048 119.127 87.3928C118.506 86.7064 117.717 86.2771 116.821 86.0658C116.31 85.945 115.831 85.9131 115.266 86.0225C114.68 86.1002 114.206 86.3932 113.798 86.8636C111.713 89.2866 109.407 92.3051 107.063 95.9358C104.6 99.6191 102.456 103.324 100.701 107.093C99.3294 109.927 98.3235 112.47 97.7983 114.694C97.5626 115.691 97.4461 116.528 97.4246 117.305C97.3304 118.39 97.5899 119.234 98.2305 119.952C98.8514 120.638 99.6158 121.061 100.587 121.291Z" fill="#111111" fill-opacity="0.3"/>
<path fill-rule="evenodd" clip-rule="evenodd" d="M38.1242 142.38V157.339H34V132.324L46.4979 144.832L59.027 132.324V157.339H54.809V142.38L46.4822 150.742L38.1242 142.38ZM76.7713 132.324H80.8955V157.339H76.7713V132.324ZM111.123 136.493H102.757V144.793L111.123 144.832C112.255 144.832 113.224 144.426 114.044 143.606C114.864 142.786 115.27 141.803 115.27 140.647C115.27 139.515 114.864 138.539 114.044 137.719C113.224 136.9 112.255 136.493 111.123 136.493ZM114.645 157.339L109.818 149.001H102.757V157.339H98.6323V132.324H111.123C113.403 132.324 115.364 133.144 116.997 134.776C118.629 136.408 119.442 138.367 119.442 140.647C119.442 142.38 118.949 143.957 117.965 145.371C117.004 146.768 115.778 147.76 114.286 148.361L119.442 157.339H114.645ZM146.013 149.048H153.371L149.691 141.693L146.013 149.048ZM155.464 153.17H143.958L141.833 157.339H137.186L149.691 132.324L162.205 157.339H157.55L155.464 153.17ZM179.918 132.277L196.556 147.276V132.277H200.727V157.292V157.254V157.339L184.043 142.341V157.292H179.918V132.277ZM218.448 132.324H239.312V136.493H230.985V157.339H226.814V136.493H218.448V132.324ZM276.608 132.324H281.904L271.632 145.441V157.339H267.508V145.659L257.056 132.324H262.391L269.484 141.443L276.608 132.324Z" fill="#111111" fill-opacity="0.3"/>
</g>
<defs>
<clipPath id="clip0">
<rect width="248" height="98" fill="white" transform="translate(34 80)"/>
</clipPath>
</defs>
</svg>
