<svg width="25" height="25" viewBox="0 0 25 25" fill="none" xmlns="http://www.w3.org/2000/svg">
<path d="M16.1878 2.77352C12.4898 -0.924507 6.47095 -0.924507 2.77292 2.77352C-0.924306 6.47235 -0.924306 12.4904 2.77292 16.1892C6.06611 19.4816 11.1951 19.8343 14.8907 17.2634C14.9685 17.6314 15.1464 17.9825 15.4326 18.2687L20.8181 23.6542C21.603 24.4374 22.8712 24.4374 23.652 23.6542C24.436 22.8702 24.436 21.602 23.652 20.8203L18.2665 15.4332C17.9819 15.1494 17.63 14.9707 17.262 14.8929C19.8345 11.1965 19.4818 6.06832 16.1878 2.77352ZM14.4875 14.4889C11.7266 17.2498 7.23332 17.2498 4.47323 14.4889C1.71394 11.728 1.71394 7.23552 4.47323 4.47463C7.23332 1.71454 11.7266 1.71454 14.4875 4.47463C17.2484 7.23552 17.2484 11.728 14.4875 14.4889Z" fill="#111111"/>
</svg>
