<svg width="17" height="17" viewBox="0 0 17 17" fill="none" xmlns="http://www.w3.org/2000/svg">
<path fill-rule="evenodd" clip-rule="evenodd" d="M12.0742 11.3056L15.7719 15.1515C16.0848 15.4768 16.0744 15.9956 15.7493 16.3084C15.5963 16.4557 15.3947 16.5367 15.1823 16.5367C14.9578 16.5367 14.7484 16.4475 14.5926 16.2858L10.8668 12.4107C9.80883 13.1542 8.57143 13.5459 7.27293 13.5459C3.81409 13.5459 1 10.7318 1 7.27293C1 3.81409 3.81409 1 7.27293 1C10.7318 1 13.5459 3.81409 13.5459 7.27293C13.5459 8.75334 13.0249 10.1754 12.0742 11.3056ZM11.9094 7.27295C11.9094 4.71633 9.8295 2.63644 7.27287 2.63644C4.71624 2.63644 2.63635 4.71633 2.63635 7.27295C2.63635 9.82958 4.71624 11.9095 7.27287 11.9095C9.8295 11.9095 11.9094 9.82958 11.9094 7.27295Z" fill="#999999"/>
<path d="M15.7719 15.1515L15.8801 15.0475L15.8801 15.0475L15.7719 15.1515ZM12.0742 11.3056L11.9594 11.209L11.8725 11.3123L11.9661 11.4096L12.0742 11.3056ZM15.7493 16.3084L15.6453 16.2003L15.6453 16.2003L15.7493 16.3084ZM14.5926 16.2858L14.4845 16.3897L14.4846 16.3898L14.5926 16.2858ZM10.8668 12.4107L10.9749 12.3068L10.8858 12.2141L10.7805 12.288L10.8668 12.4107ZM15.8801 15.0475L12.1823 11.2016L11.9661 11.4096L15.6638 15.2554L15.8801 15.0475ZM15.8533 16.4165C16.238 16.0463 16.2503 15.4326 15.8801 15.0475L15.6638 15.2554C15.9192 15.521 15.9108 15.9449 15.6453 16.2003L15.8533 16.4165ZM15.1823 16.6867C15.4334 16.6867 15.6723 16.5907 15.8533 16.4165L15.6453 16.2003C15.5203 16.3206 15.3561 16.3867 15.1823 16.3867V16.6867ZM14.4846 16.3898C14.6685 16.5809 14.917 16.6867 15.1823 16.6867V16.3867C14.9986 16.3867 14.8282 16.3141 14.7007 16.1817L14.4846 16.3898ZM10.7586 12.5147L14.4845 16.3897L14.7008 16.1818L10.9749 12.3068L10.7586 12.5147ZM7.27293 13.6959C8.60226 13.6959 9.86979 13.2947 10.953 12.5335L10.7805 12.288C9.74788 13.0137 8.5406 13.3959 7.27293 13.3959V13.6959ZM0.85 7.27293C0.85 10.8146 3.73125 13.6959 7.27293 13.6959V13.3959C3.89693 13.3959 1.15 10.6489 1.15 7.27293H0.85ZM7.27293 0.85C3.73125 0.85 0.85 3.73125 0.85 7.27293H1.15C1.15 3.89693 3.89693 1.15 7.27293 1.15V0.85ZM13.6959 7.27293C13.6959 3.73125 10.8146 0.85 7.27293 0.85V1.15C10.6489 1.15 13.3959 3.89693 13.3959 7.27293H13.6959ZM12.189 11.4022C13.1624 10.245 13.6959 8.78879 13.6959 7.27293H13.3959C13.3959 8.7179 12.8875 10.1058 11.9594 11.209L12.189 11.4022ZM7.27287 2.78644C9.74665 2.78644 11.7594 4.79917 11.7594 7.27295H12.0594C12.0594 4.63348 9.91234 2.48644 7.27287 2.48644V2.78644ZM2.78635 7.27295C2.78635 4.79917 4.79908 2.78644 7.27287 2.78644V2.48644C4.6334 2.48644 2.48635 4.63348 2.48635 7.27295H2.78635ZM7.27287 11.7595C4.79908 11.7595 2.78635 9.74674 2.78635 7.27295H2.48635C2.48635 9.91243 4.6334 12.0595 7.27287 12.0595V11.7595ZM11.7594 7.27295C11.7594 9.74674 9.74665 11.7595 7.27287 11.7595V12.0595C9.91234 12.0595 12.0594 9.91243 12.0594 7.27295H11.7594Z" fill="#999999"/>
</svg>
