<svg width="29" height="36" viewBox="0 0 29 36" fill="none" xmlns="http://www.w3.org/2000/svg">
<path d="M28.503 12.3367L21.2463 9.52597C21.6258 8.44752 21.7413 7.29381 21.583 6.16155C21.4246 5.02928 20.9972 3.95147 20.3365 3.01847C19.6757 2.08547 18.8009 1.32448 17.7854 0.799281C16.7699 0.274086 15.6433 0 14.5 0C13.3567 0 12.2301 0.274086 11.2146 0.799281C10.1991 1.32448 9.3243 2.08547 8.66355 3.01847C8.0028 3.95147 7.57536 5.02928 7.41705 6.16155C7.25874 7.29381 7.37419 8.44752 7.75371 9.52597L0.497015 12.3367C0.350533 12.3939 0.224718 12.4939 0.136036 12.6238C0.0473549 12.7536 -5.93636e-05 12.9072 5.57796e-08 13.0644V29.8969C-4.44148e-05 30.0544 0.0475246 30.2082 0.136463 30.3381C0.225401 30.4681 0.351551 30.5681 0.498354 30.625L14.2176 35.9432C14.3077 35.978 14.4034 35.9958 14.5 35.9958C14.5956 35.9939 14.69 35.9742 14.7784 35.9378L14.7824 35.9432L28.503 30.625C28.6495 30.5679 28.7754 30.4678 28.8641 30.3378C28.9528 30.2079 29.0001 30.0542 29 29.8969V13.0644C29.0001 12.9072 28.9526 12.7536 28.864 12.6238C28.7753 12.4939 28.6495 12.3939 28.503 12.3367ZM26.0603 13.0644L23.5275 14.046L19.3301 12.4309C19.8083 11.9909 20.2246 11.4881 20.5677 10.9363L26.0603 13.0644ZM17.7944 13.5132L21.3636 14.8861L19.3484 15.6668L15.6515 14.2226C16.3991 14.1019 17.1225 13.8624 17.7944 13.5132ZM20.2237 17.0017L22.8458 15.9854V19.2383L22.4072 18.9523C22.2538 18.8524 22.0702 18.8096 21.8884 18.8313C21.7067 18.853 21.5383 18.9378 21.4127 19.071L20.2237 20.3327V17.0017ZM14.5 1.5813C15.6057 1.5813 16.6865 1.90917 17.6058 2.52344C18.5251 3.13771 19.2417 4.0108 19.6648 5.03229C20.0879 6.05379 20.1986 7.17781 19.9829 8.26223C19.7672 9.34664 19.2348 10.3427 18.4529 11.1246C17.6711 11.9064 16.675 12.4388 15.5906 12.6545C14.5062 12.8702 13.3822 12.7595 12.3607 12.3364C11.3392 11.9133 10.4661 11.1967 9.85183 10.2774C9.23756 9.3581 8.90969 8.27727 8.90969 7.17161C8.91135 5.68948 9.50085 4.26852 10.5489 3.22049C11.5969 2.17247 13.0179 1.58296 14.5 1.5813ZM8.87846 11.5752L7.83357 11.1669L8.43186 10.9349C8.56895 11.1567 8.71804 11.3709 8.87846 11.5765V11.5752ZM5.67998 12.0017L17.1925 16.502L14.5 17.5456L2.93971 13.0644L5.67998 12.0017ZM1.56154 29.362V14.2048L13.7192 18.918V34.0751L1.56154 29.362ZM15.2808 34.0751V18.918L18.6622 17.6063V22.3002C18.6622 22.4566 18.7093 22.6094 18.7972 22.7387C18.8851 22.8681 19.0098 22.9681 19.1552 23.0257C19.2467 23.0623 19.3444 23.0811 19.4429 23.081C19.5494 23.0811 19.6548 23.0593 19.7525 23.0171C19.8503 22.9749 19.9383 22.9131 20.0113 22.8356L22.1016 20.6169L23.2004 21.3308C23.3182 21.4069 23.4543 21.4499 23.5945 21.4552C23.7346 21.4606 23.8736 21.4281 23.9969 21.3612C24.1201 21.2943 24.223 21.1954 24.2949 21.075C24.3667 20.9545 24.4048 20.8169 24.4051 20.6767V15.38L27.4385 14.2048V29.362L15.2808 34.0751Z" fill="#111111"/>
<path d="M13.1095 9.46898C13.2535 9.59086 13.4368 9.65647 13.6254 9.65368C13.8141 9.65089 13.9953 9.57989 14.1357 9.45381L17.9222 6.05055C18.0024 5.98317 18.0683 5.90032 18.1158 5.80694C18.1634 5.71357 18.1917 5.61157 18.199 5.50704C18.2063 5.40251 18.1924 5.29758 18.1583 5.1985C18.1242 5.09942 18.0705 5.00822 18.0004 4.93034C17.9303 4.85245 17.8453 4.78947 17.7503 4.74515C17.6554 4.70083 17.5525 4.67608 17.4477 4.67237C17.343 4.66865 17.2386 4.68606 17.1408 4.72354C17.0429 4.76103 16.9536 4.81782 16.8782 4.89055L13.5981 7.83918L12.1043 6.57657C11.9462 6.44286 11.7414 6.37745 11.535 6.39472C11.3287 6.412 11.1376 6.51055 11.0039 6.6687C10.8702 6.82684 10.8048 7.03163 10.8221 7.238C10.8393 7.44437 10.9379 7.63543 11.096 7.76914L13.1095 9.46898Z" fill="#00AAB2"/>
</svg>
