<svg width="90" height="90" viewBox="0 0 90 90" fill="none" xmlns="http://www.w3.org/2000/svg">
<path d="M64.8921 30.7212C66.2654 32.0945 66.2654 34.3206 64.8921 35.6932L41.3072 59.2788C39.9339 60.6514 37.7085 60.6514 36.3352 59.2788L25.1079 48.0508C23.7346 46.6782 23.7346 44.4521 25.1079 43.0795C26.4805 41.7062 28.7066 41.7062 30.0792 43.0795L38.8209 51.8211L59.9201 30.7212C61.2934 29.3486 63.5195 29.3486 64.8921 30.7212ZM90 45C90 69.8737 69.8703 90 45 90C20.1263 90 0 69.8703 0 45C0 20.1263 20.1297 0 45 0C69.8737 0 90 20.1297 90 45ZM82.9688 45C82.9688 24.0127 65.9846 7.03125 45 7.03125C24.0127 7.03125 7.03125 24.0154 7.03125 45C7.03125 65.9873 24.0154 82.9688 45 82.9688C65.9873 82.9688 82.9688 65.9846 82.9688 45Z" fill="#00AAB2"/>
</svg>
