<svg width="45" height="47" viewBox="0 0 45 47" fill="none" xmlns="http://www.w3.org/2000/svg">
<path fill-rule="evenodd" clip-rule="evenodd" d="M44.9515 17.3633L43.1017 5.32062C42.8365 3.59284 41.5269 2.23805 39.8567 1.96378L28.2155 0.0501109C26.9797 -0.153065 25.7245 0.268869 24.8403 1.18358L1.14427 25.6966C-0.381422 27.275 -0.381422 29.8334 1.14427 31.4118L14.6354 45.368C16.1611 46.9463 18.6341 46.9463 20.16 45.3678L43.8559 20.8549C44.7402 19.94 45.148 18.6416 44.9515 17.3633ZM19.1461 42.2402C18.55 42.8569 17.583 42.8569 16.9868 42.2402L4.16814 28.9796C3.57198 28.3628 3.57198 27.3625 4.16814 26.7456C4.76406 26.1292 5.73125 26.1289 6.32752 26.7456L19.1461 40.0064C19.7423 40.6231 19.7421 41.6235 19.1461 42.2402ZM32.2297 13.211C33.3784 14.3995 35.2412 14.3997 36.3902 13.211C37.539 12.0225 37.539 10.0956 36.3902 8.90709C35.2411 7.71847 33.3785 7.71847 32.2297 8.90709C31.0805 10.0957 31.0807 12.0224 32.2297 13.211Z" fill="#00AAB2"/>
</svg>
