<svg width="31" height="31" viewBox="0 0 31 31" fill="none" xmlns="http://www.w3.org/2000/svg">
<path fill-rule="evenodd" clip-rule="evenodd" d="M25.2481 14.9463L30.8709 24.7076C31.0666 25.0467 31.0375 25.471 30.7992 25.781C30.5609 26.091 30.1579 26.2305 29.7801 26.1259L24.0914 24.5952L22.5782 30.282C22.4774 30.6617 22.1577 30.9427 21.7702 30.993C21.7276 30.9988 21.683 31.0008 21.6424 31.0008C21.2994 31.0008 20.9778 30.8187 20.8034 30.5164L15.5003 21.3363L10.1972 30.5164C10.0229 30.8187 9.70123 31.0008 9.35828 31.0008C9.3176 31.0008 9.27497 30.9988 9.23041 30.9911C8.8429 30.9407 8.5232 30.6598 8.42245 30.28L6.90922 24.5933L1.22057 26.124C0.842753 26.2286 0.44168 26.0891 0.201424 25.7791C-0.0388327 25.4691 -0.0659584 25.0448 0.129734 24.7038L5.7525 14.9443C5.17124 13.6307 4.84379 12.1814 4.84379 10.6565C4.84379 4.77993 9.62373 0 15.5003 0C21.3769 0 26.1568 4.77993 26.1568 10.6565C26.1568 12.1814 25.8294 13.6307 25.2481 14.9463ZM8.53167 23.1566L9.69227 27.518L13.3988 21.1028C10.723 20.5642 8.41542 19.018 6.87119 16.8828L2.97672 23.6429L7.34395 22.4688C7.59002 22.4048 7.85741 22.4378 8.08022 22.5657C8.30304 22.6955 8.4658 22.9086 8.53167 23.1566ZM6.78125 10.6565C6.78125 5.84941 10.6932 1.9375 15.5002 1.9375C20.3073 1.9375 24.2192 5.84941 24.2192 10.6565C24.2192 15.4635 20.3073 19.3754 15.5002 19.3754C10.6932 19.3754 6.78125 15.4635 6.78125 10.6565ZM22.9202 22.5693C23.143 22.4414 23.4085 22.4066 23.6565 22.4724L28.0237 23.6466L24.1292 16.8865C22.585 19.0217 20.2754 20.5698 17.6016 21.1065L21.3082 27.5217L22.4688 23.1603C22.5346 22.9103 22.6974 22.6972 22.9202 22.5693Z" fill="#111111"/>
<path fill-rule="evenodd" clip-rule="evenodd" d="M20.5873 7.60699C20.9051 7.6903 21.1589 7.92668 21.2616 8.23863C21.3643 8.55057 21.3042 8.89352 21.0988 9.14927L19.2581 11.455L19.4596 14.4678C19.4829 14.803 19.3298 15.1266 19.0547 15.3223C18.8881 15.4405 18.6904 15.5006 18.4928 15.5006C18.3649 15.5006 18.2351 15.4754 18.113 15.4231L15.4993 14.3128L12.8855 15.4231C12.5775 15.5548 12.221 15.518 11.9458 15.3223C11.6707 15.1266 11.5176 14.803 11.5389 14.4678L11.7404 11.455L9.89783 9.14927C9.69245 8.89158 9.63045 8.55057 9.73508 8.23863C9.8397 7.92668 10.0916 7.6903 10.4113 7.60699L13.1607 6.88815L14.6681 4.34996C15.0149 3.76095 15.9837 3.76095 16.3324 4.34996L17.8399 6.88815L20.5873 7.60699ZM17.3024 11.209C17.285 10.9687 17.3605 10.7304 17.5117 10.5405L18.6567 9.10478L16.9653 8.66108C16.7192 8.59714 16.508 8.43632 16.3782 8.21932L15.5005 6.74097L14.6228 8.21932C14.493 8.43632 14.2818 8.59714 14.0357 8.66108L12.3442 9.10478L13.4893 10.5405C13.6404 10.7304 13.716 10.9687 13.6986 11.209L13.5784 13.0244L15.1207 12.3676C15.2428 12.3153 15.3726 12.2901 15.5005 12.2901C15.6284 12.2901 15.7582 12.3153 15.8802 12.3676L17.4245 13.0244L17.3024 11.209Z" fill="#00AAB2"/>
</svg>
