<svg width="24" height="24" viewBox="0 0 24 24" fill="none" xmlns="http://www.w3.org/2000/svg">
<path fill-rule="evenodd" clip-rule="evenodd" d="M0.424969 11.6995C0.424969 5.24836 5.71307 0 12.213 0C18.7124 0 24 5.24836 24 11.6995C24 18.1498 18.7124 23.3977 12.2131 23.3976C10.2638 23.3976 8.33772 22.917 6.63357 22.0064L0.406034 23.9854C0.375021 23.9952 0.343229 24 0.31167 24C0.229307 24 0.148657 23.9673 0.0892027 23.9066C0.00683905 23.8227 -0.0212129 23.6996 0.0165014 23.5883L2.04115 17.6159C0.983359 15.8284 0.424969 13.786 0.424969 11.6995ZM7.07515 19.4288C8.60227 20.4309 10.3788 20.9605 12.213 20.9605C17.3609 20.9605 21.549 16.806 21.5489 11.6994C21.5489 6.59213 17.3608 2.43701 12.2129 2.43701C7.06448 2.43701 2.87585 6.59213 2.87585 11.6994C2.87585 13.6624 3.49058 15.5398 4.65349 17.1288C4.71349 17.2107 4.72978 17.3168 4.69721 17.4129L3.69014 20.384L6.80975 19.3924C6.84069 19.3826 6.87248 19.3777 6.90419 19.3777C6.96419 19.3777 7.0238 19.395 7.07515 19.4288Z" fill="#111111"/>
<path fill-rule="evenodd" clip-rule="evenodd" d="M17.7584 13.7907C17.7116 13.7683 15.962 12.9067 15.651 12.7948C15.5241 12.7492 15.3881 12.7047 15.2435 12.7047C15.0073 12.7047 14.8088 12.8225 14.6542 13.0538C14.4794 13.3136 13.9503 13.932 13.7868 14.1168C13.7655 14.1412 13.7363 14.1703 13.7189 14.1703C13.7032 14.1703 13.4325 14.0588 13.3505 14.0232C11.4736 13.2079 10.0489 11.2473 9.85357 10.9167C9.82567 10.8691 9.8245 10.8476 9.82427 10.8476C9.83112 10.8224 9.89424 10.7591 9.92681 10.7265C10.0221 10.6322 10.1254 10.5079 10.2253 10.3877C10.2726 10.3307 10.3199 10.2737 10.3664 10.2199C10.5114 10.0513 10.5759 9.92036 10.6507 9.76872L10.6899 9.68994C10.8726 9.32706 10.7166 9.02083 10.6661 8.92194C10.6248 8.83919 9.88598 7.05618 9.80744 6.86885C9.61855 6.41683 9.36897 6.20636 9.02214 6.20636C8.98996 6.20636 9.02214 6.20636 8.88718 6.21205C8.72284 6.21898 7.8279 6.3368 7.43222 6.58623C7.0126 6.85078 6.30273 7.69405 6.30273 9.17706C6.30273 10.5118 7.14975 11.772 7.51341 12.2513C7.52245 12.2634 7.53905 12.2879 7.56312 12.3232C8.95583 14.3571 10.692 15.8644 12.452 16.5675C14.1465 17.2443 14.9488 17.3226 15.405 17.3226C15.405 17.3226 15.405 17.3226 15.405 17.3226C15.5967 17.3226 15.7502 17.3075 15.8855 17.2942L15.9714 17.286C16.5567 17.2341 17.8431 16.5676 18.1357 15.7545C18.3662 15.114 18.4269 14.4143 18.2736 14.1603C18.1686 13.9877 17.9875 13.9008 17.7584 13.7907Z" fill="#00AAB2"/>
</svg>
